<?xml version="1.0" encoding="UTF-8" standalone="no"?>
<!-- Created with Inkscape (http://www.inkscape.org/) -->

<svg
   width="1033.3849"
   height="205.4397"
   viewBox="0 0 1033.3849 205.43971"
   version="1.1"
   id="svg1"
   inkscape:version="1.3 (0e150ed6c4, 2023-07-21)"
   sodipodi:docname="drawing.svg"
   xmlns:inkscape="http://www.inkscape.org/namespaces/inkscape"
   xmlns:sodipodi="http://sodipodi.sourceforge.net/DTD/sodipodi-0.dtd"
   xmlns="http://www.w3.org/2000/svg"
   xmlns:svg="http://www.w3.org/2000/svg">
  <sodipodi:namedview
     id="namedview1"
     pagecolor="#505050"
     bordercolor="#eeeeee"
     borderopacity="1"
     inkscape:showpageshadow="0"
     inkscape:pageopacity="0"
     inkscape:pagecheckerboard="0"
     inkscape:deskcolor="#505050"
     inkscape:document-units="px"
     inkscape:zoom="0.57014592"
     inkscape:cx="474.43995"
     inkscape:cy="298.16928"
     inkscape:window-width="1600"
     inkscape:window-height="829"
     inkscape:window-x="-8"
     inkscape:window-y="-8"
     inkscape:window-maximized="1"
     inkscape:current-layer="layer1" />
  <defs
     id="defs1" />
  <g
     inkscape:label="Layer 1"
     inkscape:groupmode="layer"
     id="layer1"
     transform="translate(451.00278,-1596.1178)">
    <path
       style="font-size:213.333px;line-height:0.9;font-family:'Product Serif';-inkscape-font-specification:'Product Serif';text-align:center;letter-spacing:0px;text-orientation:upright;text-anchor:middle;fill:#ffffff;stroke:none;stroke-width:10"
       d="m -447.80278,1755.6909 q -3.2,0 -3.2,-2.3466 0,-1.92 2.77333,-2.56 l 4.90666,-0.8534 q 4.47999,-0.8533 5.75999,-2.3466 1.49333,-1.4934 1.49333,-5.9734 v -125.4398 q 0,-4.48 -1.49333,-5.9733 -1.28,-1.4933 -5.75999,-2.3466 l -4.90666,-0.8534 q -2.77333,-0.64 -2.77333,-2.56 0,-2.3466 3.2,-2.3466 h 44.58659 q 12.58665,0 22.18663,5.5466 9.59999,5.3333 14.93331,14.9333 5.33333,9.6 5.33333,22.1867 0,12.1599 -5.33333,21.5466 -5.33332,9.3866 -14.71997,14.72 -9.38666,5.12 -21.75997,5.12 h -15.35997 q -2.98667,0 -2.98667,2.9866 v 51.6266 q 0,4.48 1.70667,6.1867 1.70666,1.4933 7.67999,2.56 l 7.89332,1.28 q 2.34666,0.4266 2.34666,2.3466 0,2.56 -3.2,2.56 z m 26.87995,-86.6132 q 0,11.7333 14.29331,11.7333 13.86665,0 21.75997,-9.8133 8.10665,-9.8133 8.10665,-26.8799 0,-17.4933 -8.10665,-27.0933 -8.10665,-9.6 -23.03996,-9.6 -13.01332,0 -13.01332,8.5333 z m 87.89312,88.5332 q -8.95998,0 -14.71997,-5.5466 -5.76,-5.76 -5.76,-15.1467 0,-9.1733 5.76,-17.28 5.75999,-8.3199 15.78664,-14.9333 10.02665,-6.6133 22.82663,-10.6666 2.77333,-0.8533 2.77333,-3.6267 v -19.4133 q 0,-10.24 -3.2,-14.5066 -3.19999,-4.48 -8.74665,-4.48 -5.33333,0 -9.81332,4.9066 -4.26666,4.6934 -6.18666,16 -1.06666,6.8267 -4.69332,10.0267 -3.41333,2.9866 -7.03999,2.9866 -5.97332,0 -5.97332,-5.9733 0,-6.1867 3.41332,-12.16 3.62666,-6.1866 9.38665,-11.0933 5.76,-5.12 12.58665,-8.1066 6.82666,-2.9867 13.65331,-2.9867 21.11997,0 21.11997,24.5333 v 71.4665 q 0,7.04 4.90666,7.04 2.34666,0 3.62666,-1.0666 1.28,-1.0667 2.55999,-1.0667 1.70667,0 1.70667,1.7067 0,2.56 -4.05333,5.9733 -3.83999,3.4133 -9.38665,3.4133 -5.54666,0 -8.31999,-3.2 -2.55999,-3.4133 -3.62666,-10.88 -0.21333,-2.1333 -1.91999,-2.1333 -1.49334,-0.2133 -2.98667,1.92 -5.11999,7.04 -10.45331,10.6667 -5.33333,3.6266 -13.22665,3.6266 z m 5.75999,-9.8133 q 5.54666,0 10.23999,-3.84 4.69332,-4.0533 7.67998,-10.6666 2.98667,-6.6134 2.98667,-14.9334 v -15.5733 q 0,-4.0533 -4.48,-2.3466 -13.01331,4.6933 -20.26663,13.0133 -7.03999,8.1066 -7.03999,19.6266 0,14.72 10.87998,14.72 z m 87.46646,53.7599 q -16.21331,0 -25.59996,-6.6133 -9.38665,-6.4 -9.38665,-15.5733 0,-3.84 1.06666,-7.04 1.06667,-2.9867 4.48,-7.04 3.62666,-4.0533 10.87998,-10.4533 2.55999,-2.3467 2.55999,-4.2667 0,-2.1333 -2.55999,-3.2 -7.67999,-3.2 -9.17332,-8.1066 -1.49333,-5.12 3.62666,-9.3867 l 12.37331,-10.4533 q 2.34667,-2.1333 2.13333,-4.2667 -0.21333,-2.3466 -2.77332,-3.8399 -6.18666,-4.2667 -10.87999,-12.3734 -4.69332,-8.1066 -4.69332,-18.3466 0,-9.8133 4.26666,-17.7066 4.26666,-7.8934 11.51998,-12.5867 7.25332,-4.6933 16.21331,-4.6933 2.98666,0 4.90666,0.4267 2.13333,0.2133 4.69332,0.64 2.77333,0.2133 7.46666,0.2133 h 18.98663 q 3.2,0 3.2,2.56 0,2.56 -2.77333,3.2 l -11.51998,2.7733 q -2.13333,0.64 -0.85334,2.56 3.62667,4.6933 5.54666,10.6667 1.92,5.9733 1.92,12.7999 0,10.24 -4.26666,18.3467 -4.05333,8.1066 -11.30665,12.8 -7.03999,4.6933 -15.99997,4.6933 -3.84,0 -6.82666,1.92 -2.98666,1.7066 -7.03999,6.1866 -4.26666,4.9067 -3.41333,8.32 1.06667,3.4133 5.75999,3.4133 h 20.90664 q 15.35997,0 24.31996,7.68 8.95998,7.4667 8.95998,20.6933 0,10.4534 -6.18665,18.56 -5.97333,8.1067 -16.42664,12.8 -10.45332,4.6933 -24.10663,4.6933 z m -12.79998,-120.5331 q 0,14.2933 4.47999,22.6133 4.48,8.32 12.15998,8.32 7.67999,0 12.15998,-8.32 4.48,-8.32 4.48,-22.6133 0,-13.8667 -4.69333,-22.1867 -4.47999,-8.5333 -11.94665,-8.5333 -7.46665,0 -12.15998,8.5333 -4.47999,8.32 -4.47999,22.1867 z m -9.38665,95.5732 q 0,8.9599 6.39999,14.5066 6.61332,5.76 18.34664,5.76 13.43997,0 21.97329,-7.4667 8.53332,-7.4666 8.53332,-19.1999 0,-9.6 -5.75999,-14.72 -5.54666,-5.3333 -15.78664,-5.3333 h -7.46665 q -6.61333,0 -10.02665,1.4933 -3.41333,1.28 -7.25333,5.3333 -5.97332,6.4 -7.46665,10.6667 -1.49333,4.48 -1.49333,8.96 z m 110.07992,-18.9867 q -10.45331,0 -18.7733,-6.8266 -8.31999,-6.8267 -13.22665,-19.2 -4.69332,-12.5867 -4.69332,-29.0133 0,-16.8533 4.90666,-29.6533 4.90666,-12.8 13.43998,-20.0533 8.53331,-7.2533 18.98663,-7.2533 12.58665,0 20.26664,10.4533 7.89332,10.24 7.89332,33.4933 0,7.04 -5.33333,7.04 h -40.53327 q -4.26666,0 -4.26666,4.9066 0,22.6133 6.61333,34.56 6.61332,11.7333 18.55997,11.7333 7.46665,0 12.15998,-4.0533 4.90666,-4.0534 7.67998,-11.3067 1.06667,-2.3466 2.77333,-2.3466 1.28,0 1.70667,1.0666 0.42666,1.0667 0,2.3467 -2.77333,10.4533 -9.59999,17.28 -6.61332,6.8266 -18.55997,6.8266 z m -17.70664,-66.3465 h 21.54664 q 10.23998,0 10.23998,-10.6667 0,-13.8666 -3.41333,-21.76 -3.41333,-7.8933 -10.23998,-7.8933 -8.31999,0 -14.07998,9.6 -5.54666,9.6 -7.25332,27.3066 -0.42667,3.4134 3.19999,3.4134 z m 59.09315,64.4265 q -3.19999,0 -3.19999,-2.3466 0,-1.92 2.77333,-2.56 l 4.90666,-0.8534 q 4.47999,-0.8533 5.75999,-2.3466 1.493329,-1.4934 1.493329,-5.9734 v -125.4398 q 0,-4.48 -1.493329,-5.9733 -1.28,-1.4933 -5.75999,-2.3466 l -4.90666,-0.8534 q -2.77333,-0.64 -2.77333,-2.56 0,-2.3466 3.19999,-2.3466 h 44.5866 q 12.586646,0 22.186631,5.5466 9.599985,5.3333 14.933309,14.9333 5.333325,9.6 5.333325,22.1867 0,12.1599 -5.333325,21.5466 -5.333324,9.3866 -14.719976,14.72 -9.386652,5.12 -21.759965,5.12 h -15.359976 q -2.986662,0 -2.986662,2.9866 v 51.6266 q 0,4.48 1.706664,6.1867 1.706664,1.4933 7.679988,2.56 l 7.893321,1.28 q 2.346663,0.4266 2.346663,2.3466 0,2.56 -3.199995,2.56 z m 26.879961,-86.6132 q 0,11.7333 14.293311,11.7333 13.866644,0 21.759965,-9.8133 8.106654,-9.8133 8.106654,-26.8799 0,-17.4933 -8.106654,-27.0933 -8.106654,-9.6 -23.039963,-9.6 -13.013313,0 -13.013313,8.5333 z m 103.039836,88.5332 q -10.4533163,0 -18.77330305,-6.8266 -8.31998675,-6.8267 -13.22664595,-19.2 -4.693325,-12.5867 -4.693325,-29.0133 0,-16.8533 4.906658,-29.6533 4.9066592,-12.8 13.4399789,-20.0533 8.5333197,-7.2533 18.9866361,-7.2533 12.586647,0 20.266635,10.4533 7.89332,10.24 7.89332,33.4933 0,7.04 -5.333325,7.04 H 2.3296979 q -4.2666599,0 -4.2666599,4.9066 0,22.6133 6.6133228,34.56 6.6133232,11.7333 18.5599702,11.7333 7.466655,0 12.159981,-4.0533 4.906659,-4.0534 7.679987,-11.3067 1.066665,-2.3466 2.773329,-2.3466 1.279998,0 1.706664,1.0666 0.426666,1.0667 0,2.3467 -2.773329,10.4533 -9.599984,17.28 -6.613323,6.8266 -18.559971,6.8266 z M 1.6896989,1691.2644 H 23.236331 q 10.239984,0 10.239984,-10.6667 0,-13.8666 -3.413328,-21.76 -3.413328,-7.8933 -10.239984,-7.8933 -8.319986,0 -14.0799772,9.6 -5.54665783,9.6 -7.2533218,27.3066 -0.426666,3.4134 3.1999949,3.4134 z m 84.6931091,-30.72 q 8.746653,-14.9333 21.119962,-14.9333 7.03999,0 10.45332,4.2667 3.41333,4.0533 3.41333,9.1733 0,4.0533 -2.13333,6.6133 -1.92,2.56 -6.18666,2.56 -3.41333,0 -5.11999,-1.4933 -1.49333,-1.7067 -2.56,-3.84 -0.85333,-2.1334 -2.13333,-3.6267 -1.27999,-1.7067 -4.266655,-1.7067 -3.839994,0 -7.253322,4.6934 -3.413328,4.48 -5.759991,12.1599 -2.13333,7.68 -2.13333,17.4934 v 49.4932 q 0,4.48 1.279998,6.4 1.493331,1.92 5.973324,2.3467 l 5.759991,0.64 q 2.346663,0.4266 2.346663,2.3466 0,2.56 -3.199995,2.56 H 59.929517 q -3.199995,0 -3.199995,-2.3466 0,-1.92 2.773329,-2.56 l 2.559996,-0.4267 q 4.479993,-0.8533 5.759991,-2.56 1.493331,-1.92 1.493331,-6.4 v -71.6799 q 0,-3.84 -1.279998,-5.12 -1.066665,-1.4933 -4.053327,-1.92 l -4.479993,-0.64 q -2.773329,-0.2133 -2.773329,-2.3466 0,-1.7067 3.413328,-2.3467 6.613323,-1.0667 10.026651,-3.4133 3.626661,-2.3467 7.466655,-5.76 1.919997,-1.92 3.199995,-1.92 1.919997,0 1.919997,2.56 v 11.52 q 0,1.4933 1.279997,1.92 1.279998,0.2133 2.346663,-1.7067 z m 53.120052,80.8532 v -83.4132 q 0,-5.12 -5.11999,-5.12 h -4.90666 q -2.56,0 -2.56,-2.1333 0,-2.1333 2.56,-2.3467 10.02665,-1.0666 10.02665,-8.7466 v -1.28 q 0,-11.0933 3.19999,-20.6933 3.41333,-9.6 9.59999,-15.5733 6.39999,-5.9734 15.57331,-5.9734 8.53332,0 14.29331,4.9067 5.75999,4.9067 5.75999,11.7333 0,4.0533 -2.13333,6.1867 -1.92,1.92 -5.33333,1.92 -4.26666,0 -6.18665,-2.7734 -1.70667,-2.7733 -2.77333,-6.1866 -1.06667,-3.6267 -2.77333,-6.4 -1.49333,-2.7733 -5.54666,-2.7733 -4.26666,0 -6.82665,4.9066 -2.34667,4.6933 -2.34667,17.92 v 18.7733 q 0,2.56 2.56,2.56 h 18.34664 q 3.19999,0 3.19999,2.9867 0,2.9866 -3.19999,2.9866 H 156.5695 q -2.56,0 -2.56,2.56 v 85.9732 q 0,4.48 1.28,6.1867 1.49333,1.7066 5.97332,2.1333 l 11.30665,1.0667 q 2.34667,0.4266 2.34667,2.3466 0,2.56 -3.2,2.56 h -44.37326 q -3.2,0 -3.2,-2.3466 0,-2.3467 2.77333,-2.56 l 5.33333,-0.4267 q 4.47999,-0.4267 5.75999,-2.3467 1.49333,-2.1333 1.49333,-6.6133 z m 78.50642,16.2133 q -10.45331,0 -18.7733,-6.8266 -8.31999,-6.8267 -13.22665,-19.2 -4.69332,-12.5867 -4.69332,-29.0133 0,-16.8533 4.90666,-29.6533 4.90666,-12.8 13.43998,-20.0533 8.53332,-7.2533 18.98663,-7.2533 12.58665,0 20.26664,10.4533 7.89332,10.24 7.89332,33.4933 0,7.04 -5.33333,7.04 h -40.53327 q -4.26666,0 -4.26666,4.9066 0,22.6133 6.61333,34.56 6.61332,11.7333 18.55997,11.7333 7.46665,0 12.15998,-4.0533 4.90666,-4.0534 7.67999,-11.3067 1.06666,-2.3466 2.77332,-2.3466 1.28,0 1.70667,1.0666 0.42666,1.0667 0,2.3467 -2.77333,10.4533 -9.59999,17.28 -6.61332,6.8266 -18.55997,6.8266 z m -17.70664,-66.3465 h 21.54664 q 10.23998,0 10.23998,-10.6667 0,-13.8666 -3.41333,-21.76 -3.41333,-7.8933 -10.23998,-7.8933 -8.31999,0 -14.07998,9.6 -5.54666,9.6 -7.25332,27.3066 -0.42667,3.4134 3.19999,3.4134 z m 91.30647,66.3465 q -9.81332,0 -17.70664,-6.1866 -7.89332,-6.4 -12.37331,-18.1333 -4.48,-11.7334 -4.48,-27.9467 0,-18.1333 5.33333,-31.5733 5.54666,-13.4399 14.93331,-20.6933 9.38665,-7.4666 20.90663,-7.4666 9.81332,0 15.35998,3.84 2.13333,1.4933 2.13333,4.6933 l 0.42666,26.0266 q 0,3.2 -2.55999,3.2 -2.34667,0 -2.98667,-2.7733 -2.98666,-11.7333 -5.75999,-18.1333 -2.77333,-6.4 -5.75999,-8.7467 -2.98666,-2.5599 -6.61332,-2.5599 -4.26666,0 -8.95999,4.9066 -4.47999,4.9067 -7.67998,16 -2.98667,10.88 -2.98667,28.7999 0,22.8267 5.97333,34.9866 6.18665,11.9467 16.8533,11.9467 6.61333,0 11.73332,-4.2667 5.11999,-4.48 7.89332,-13.2266 0.64,-2.3467 2.56,-2.3467 1.27999,0 1.70666,1.0667 0.42667,1.0667 0,2.3467 -2.77333,12.1599 -9.59999,19.1999 -6.82665,7.04 -18.34663,7.04 z m 64.21335,0 q -7.46665,0 -12.37331,-5.12 -4.69333,-5.3333 -4.69333,-17.2799 v -79.7866 q 0,-2.56 -2.55999,-2.56 h -6.18666 q -3.41333,0 -3.41333,-2.56 0,-1.7066 1.92,-2.9866 7.03999,-4.9067 11.30665,-10.4534 4.26666,-5.7599 7.46665,-15.5733 1.49333,-4.48 3.62666,-4.48 2.34666,0 2.34666,3.4134 v 23.6799 q 0,2.9867 2.98667,2.9867 h 13.86664 q 3.41333,0 3.41333,2.9867 0,2.9866 -3.41333,2.9866 h -13.86664 q -2.98667,0 -2.98667,2.9867 v 79.5732 q 0,4.6933 1.49334,7.4666 1.49333,2.56 5.54665,2.56 4.48,0 7.25333,-4.48 2.98666,-4.48 3.83999,-14.5066 0.42667,-2.9867 2.77333,-2.9867 2.55999,0 2.55999,3.2 -0.63999,16.4267 -6.82665,23.68 -5.97333,7.2533 -14.07998,7.2533 z m 68.26672,-1.92 q -3.83999,0 -3.83999,-2.7733 0,-1.4933 1.49333,-3.84 l 25.59996,-39.0399 q 15.99997,-24.32 23.03996,-41.8133 7.25333,-17.7066 7.25333,-32.4266 0,-13.2267 -5.54666,-20.2667 -5.33333,-7.0399 -15.57331,-7.0399 -10.23998,0 -18.55997,7.2533 -8.31999,7.04 -10.66665,22.6133 -0.64,3.4133 -3.2,3.4133 -3.19999,0 -2.77332,-4.2667 1.49333,-14.0799 7.25332,-22.1866 5.97332,-8.32 14.29331,-11.7333 8.31998,-3.6267 16.8533,-3.6267 14.71998,0 23.8933,8.96 9.38665,8.7467 9.38665,24.5333 0,11.0933 -5.33332,22.8266 -5.12,11.52 -14.29331,25.3867 -8.95999,13.6533 -20.6933,31.3599 l -16.63998,25.1733 q -1.28,1.92 -0.21333,3.4133 1.28,1.28 3.41333,1.28 h 22.82663 q 8.10665,0 13.43998,-1.7066 5.33332,-1.92 8.53332,-6.8267 3.19999,-5.12 4.90665,-14.5066 l 1.92,-10.0267 q 0.64,-2.7733 3.2,-2.7733 2.98666,0 2.55999,3.6267 l -2.55999,40.1066 q -0.42667,4.9066 -5.33333,4.9066 z m 122.02635,1.92 q -10.66665,0 -18.98664,-7.2533 -8.10665,-7.2533 -12.79998,-20.2666 -4.47999,-13.0134 -4.47999,-30.08 0,-17.4933 4.90666,-33.9199 5.11999,-16.64 14.07998,-30.2933 8.95998,-13.6533 20.6933,-23.04 11.94664,-9.3866 25.59996,-12.5866 2.13333,-0.4267 2.98666,0.4266 1.06666,0.8534 1.06666,2.1334 0,2.1333 -2.34666,2.7733 -18.7733,6.1866 -30.29329,20.0533 -11.51998,13.6533 -17.06664,35.8399 -0.42666,1.4934 0.21334,2.1334 0.85333,0.4266 2.13333,-0.4267 6.61332,-4.6933 15.57331,-4.6933 10.02665,0 17.91997,6.4 7.89332,6.1866 12.37331,17.0666 4.69333,10.88 4.69333,24.96 0,13.8666 -4.90666,25.5999 -4.90666,11.52 -13.22665,18.3467 -8.10665,6.8266 -18.1333,6.8266 z m -0.42667,-5.76 q 10.87998,0 15.99998,-10.6666 5.33332,-10.88 5.33332,-33.28 0,-22.8266 -4.90666,-33.4933 -4.90666,-10.6666 -15.57331,-10.6666 -22.61329,0 -22.61329,45.4399 0,42.6666 21.75996,42.6666 z"
       id="text1"
       aria-label="PagePerfect 26" />
  </g>
</svg>
