<?xml version="1.0" encoding="UTF-8" standalone="no"?>
<!-- Created with Inkscape (http://www.inkscape.org/) -->

<svg
   width="945.01172"
   height="205.4397"
   viewBox="0 0 945.01172 205.43971"
   version="1.1"
   id="svg1"
   inkscape:version="1.3 (0e150ed6c4, 2023-07-21)"
   sodipodi:docname="wordmark-black.svg"
   xmlns:inkscape="http://www.inkscape.org/namespaces/inkscape"
   xmlns:sodipodi="http://sodipodi.sourceforge.net/DTD/sodipodi-0.dtd"
   xmlns="http://www.w3.org/2000/svg"
   xmlns:svg="http://www.w3.org/2000/svg">
  <sodipodi:namedview
     id="namedview1"
     pagecolor="#505050"
     bordercolor="#eeeeee"
     borderopacity="1"
     inkscape:showpageshadow="0"
     inkscape:pageopacity="0"
     inkscape:pagecheckerboard="0"
     inkscape:deskcolor="#505050"
     inkscape:document-units="px"
     inkscape:zoom="0.70710678"
     inkscape:cx="497.09607"
     inkscape:cy="185.26198"
     inkscape:window-width="1600"
     inkscape:window-height="829"
     inkscape:window-x="-8"
     inkscape:window-y="-8"
     inkscape:window-maximized="1"
     inkscape:current-layer="layer1" />
  <defs
     id="defs1" />
  <g
     inkscape:label="Layer 1"
     inkscape:groupmode="layer"
     id="layer1"
     transform="translate(245.33268,-1734.4269)">
    <path
       d="m -242.13269,1894 q -3.19999,0 -3.19999,-2.3467 0,-1.92 2.77332,-2.56 l 4.90666,-0.8533 q 4.48,-0.8533 5.75999,-2.3467 1.49334,-1.4933 1.49334,-5.9733 v -125.4398 q 0,-4.48 -1.49334,-5.9733 -1.27999,-1.4933 -5.75999,-2.3467 l -4.90666,-0.8533 q -2.77332,-0.64 -2.77332,-2.56 0,-2.3467 3.19999,-2.3467 h 44.5866 q 12.58664,0 22.18663,5.5467 9.59998,5.3333 14.93331,14.9333 5.33332,9.6 5.33332,22.1866 0,12.16 -5.33332,21.5467 -5.33333,9.3866 -14.71998,14.72 -9.38665,5.1199 -21.75997,5.1199 h -15.35997 q -2.98666,0 -2.98666,2.9867 v 51.6266 q 0,4.48 1.70666,6.1866 1.70667,1.4934 7.67999,2.56 l 7.89332,1.28 q 2.34666,0.4267 2.34666,2.3467 0,2.56 -3.19999,2.56 z m 26.87996,-86.6132 q 0,11.7333 14.29331,11.7333 13.86664,0 21.75996,-9.8133 8.10666,-9.8133 8.10666,-26.88 0,-17.4933 -8.10666,-27.0932 -8.10665,-9.6 -23.03996,-9.6 -13.01331,0 -13.01331,8.5333 z m 87.89312,88.5332 q -8.95999,0 -14.71998,-5.5467 -5.75999,-5.76 -5.75999,-15.1466 0,-9.1733 5.75999,-17.28 5.75999,-8.32 15.78664,-14.9333 10.02665,-6.6133 22.82663,-10.6666 2.77333,-0.8534 2.77333,-3.6267 v -19.4133 q 0,-10.24 -3.2,-14.5066 -3.19999,-4.48 -8.74665,-4.48 -5.33332,0 -9.81332,4.9066 -4.26666,4.6934 -6.18665,16 -1.06667,6.8267 -4.69333,10.0266 -3.41333,2.9867 -7.03999,2.9867 -5.97332,0 -5.97332,-5.9733 0,-6.1867 3.41333,-12.16 3.62666,-6.1866 9.38665,-11.0933 5.75999,-5.12 12.58664,-8.1067 6.82666,-2.9866 13.65332,-2.9866 21.119963,0 21.119963,24.5333 v 71.4665 q 0,7.04 4.906659,7.04 2.346662,0 3.62666,-1.0667 1.279998,-1.0666 2.559996,-1.0666 1.706664,0 1.706664,1.7066 0,2.56 -4.053327,5.9734 -3.839993,3.4133 -9.386651,3.4133 -5.546658,0 -8.319987,-3.2 -2.559996,-3.4133 -3.626661,-10.88 -0.213333,-2.1333 -1.919996,-2.1333 -1.49333,-0.2133 -2.98666,1.92 -5.11999,7.04 -10.45332,10.6666 -5.33332,3.6267 -13.22664,3.6267 z m 5.75999,-9.8133 q 5.54665,0 10.23998,-3.84 4.69333,-4.0533 7.67999,-10.6667 2.98666,-6.6133 2.98666,-14.9333 v -15.5733 q 0,-4.0533 -4.47999,-2.3466 -13.01332,4.6933 -20.26664,13.0133 -7.03999,8.1066 -7.03999,19.6266 0,14.72 10.87999,14.72 z m 87.466453,53.7599 q -16.213308,0 -25.599959,-6.6133 -9.386652,-6.4 -9.386652,-15.5733 0,-3.84 1.066665,-7.04 1.066665,-2.9867 4.479993,-7.04 3.626661,-4.0533 10.879983,-10.4533 2.559995,-2.3467 2.559995,-4.2667 0,-2.1333 -2.559995,-3.2 -7.679988,-3.2 -9.173319,-8.1066 -1.493331,-5.12 3.626661,-9.3867 l 12.373313,-10.4533 q 2.346663,-2.1333 2.13333,-4.2667 -0.213333,-2.3466 -2.773329,-3.84 -6.186656,-4.2666 -10.879982,-12.3733 -4.693326,-8.1066 -4.693326,-18.3466 0,-9.8133 4.26666,-17.7067 4.26666,-7.8933 11.519981,-12.5866 7.253322,-4.6933 16.213308,-4.6933 2.986662,0 4.906659,0.4266 2.133329,0.2134 4.693325,0.64 2.773329,0.2134 7.466655,0.2134 H 5.9734355 q 3.1999949,0 3.1999949,2.56 0,2.56 -2.7733289,3.2 l -11.5199816,2.7733 q -2.13333,0.64 -0.853332,2.56 3.6266609,4.6933 5.54665781,10.6666 1.91999689,5.9734 1.91999689,12.8 0,10.24 -4.2666598,18.3467 -4.0533269,8.1066 -11.3066488,12.7999 -7.039989,4.6934 -15.999974,4.6934 -3.839994,0 -6.826656,1.92 -2.986662,1.7066 -7.039989,6.1866 -4.26666,4.9067 -3.413328,8.32 1.066665,3.4133 5.759991,3.4133 h 20.906633 q 15.3599759,0 24.3199616,7.68 8.9599854,7.4667 8.9599854,20.6933 0,10.4533 -6.1866565,18.56 -5.97332382,8.1066 -16.4266405,12.8 -10.453317,4.6933 -24.106628,4.6933 z m -12.79998,-120.5331 q 0,14.2933 4.479993,22.6132 4.479993,8.32 12.159981,8.32 7.679987,0 12.15998,-8.32 4.479993,-8.3199 4.479993,-22.6132 0,-13.8667 -4.693326,-22.1867 -4.479993,-8.5333 -11.946647,-8.5333 -7.466655,0 -12.159981,8.5333 -4.479993,8.32 -4.479993,22.1867 z m -9.386651,95.5731 q 0,8.96 6.399989,14.5067 6.613323,5.76 18.346638,5.76 13.439978,0 21.973298,-7.4667 8.5333197,-7.4666 8.5333197,-19.2 0,-9.5999 -5.7599908,-14.7199 -5.5466579,-5.3334 -15.7866419,-5.3334 h -7.466654 q -6.613323,0 -10.026651,1.4934 -3.413328,1.28 -7.253322,5.3333 -5.973323,6.4 -7.466654,10.6666 -1.493331,4.48 -1.493331,8.96 z M 53.760126,1895.92 q -10.453317,0 -18.773304,-6.8267 -8.319986,-6.8266 -13.226645,-19.1999 -4.693326,-12.5867 -4.693326,-29.0133 0,-16.8533 4.906659,-29.6533 4.906659,-12.8 13.439978,-20.0533 8.53332,-7.2533 18.986637,-7.2533 12.586646,0 20.266634,10.4533 7.893321,10.24 7.893321,33.4933 0,7.04 -5.333325,7.04 H 36.693486 q -4.266659,0 -4.266659,4.9066 0,22.6133 6.613322,34.56 6.613323,11.7333 18.559971,11.7333 7.466654,0 12.15998,-4.0533 4.906659,-4.0534 7.679988,-11.3067 1.066665,-2.3467 2.773329,-2.3467 1.279998,0 1.706664,1.0667 0.426666,1.0667 0,2.3467 -2.773329,10.4533 -9.599985,17.2799 -6.613323,6.8267 -18.55997,6.8267 z M 36.053487,1829.5734 H 57.60012 q 10.239983,0 10.239983,-10.6666 0,-13.8667 -3.413328,-21.76 -3.413327,-7.8933 -10.239983,-7.8933 -8.319987,0 -14.079978,9.6 -5.546657,9.6 -7.253321,27.3066 -0.426666,3.4133 3.199994,3.4133 z M 95.146638,1894 q -3.199995,0 -3.199995,-2.3467 0,-1.92 2.773329,-2.56 l 4.906659,-0.8533 q 4.479989,-0.8533 5.759989,-2.3467 1.49333,-1.4933 1.49333,-5.9733 v -125.4398 q 0,-4.48 -1.49333,-5.9733 -1.28,-1.4933 -5.759989,-2.3467 l -4.906659,-0.8533 q -2.773329,-0.64 -2.773329,-2.56 0,-2.3467 3.199995,-2.3467 h 44.586592 q 12.58665,0 22.18663,5.5467 9.59999,5.3333 14.93331,14.9333 5.33333,9.6 5.33333,22.1866 0,12.16 -5.33333,21.5467 -5.33332,9.3866 -14.71997,14.72 -9.38665,5.1199 -21.75997,5.1199 h -15.35997 q -2.98667,0 -2.98667,2.9867 v 51.6266 q 0,4.48 1.70667,6.1866 1.70666,1.4934 7.67999,2.56 l 7.89332,1.28 q 2.34666,0.4267 2.34666,2.3467 0,2.56 -3.19999,2.56 z m 26.879952,-86.6132 q 0,11.7333 14.29332,11.7333 13.86664,0 21.75996,-9.8133 8.10665,-9.8133 8.10665,-26.88 0,-17.4933 -8.10665,-27.0932 -8.10665,-9.6 -23.03996,-9.6 -13.01332,0 -13.01332,8.5333 z m 103.03984,88.5332 q -10.45332,0 -18.7733,-6.8267 -8.31999,-6.8266 -13.22665,-19.1999 -4.69332,-12.5867 -4.69332,-29.0133 0,-16.8533 4.90665,-29.6533 4.90666,-12.8 13.43998,-20.0533 8.53332,-7.2533 18.98664,-7.2533 12.58665,0 20.26663,10.4533 7.89332,10.24 7.89332,33.4933 0,7.04 -5.33332,7.04 h -40.53327 q -4.26666,0 -4.26666,4.9066 0,22.6133 6.61332,34.56 6.61333,11.7333 18.55997,11.7333 7.46666,0 12.15999,-4.0533 4.90665,-4.0534 7.67998,-11.3067 1.06667,-2.3467 2.77333,-2.3467 1.28,0 1.70667,1.0667 0.42666,1.0667 0,2.3467 -2.77333,10.4533 -9.59999,17.2799 -6.61332,6.8267 -18.55997,6.8267 z m -17.70664,-66.3466 h 21.54663 q 10.23999,0 10.23999,-10.6666 0,-13.8667 -3.41333,-21.76 -3.41333,-7.8933 -10.23998,-7.8933 -8.31999,0 -14.07998,9.6 -5.54666,9.6 -7.25332,27.3066 -0.42667,3.4133 3.19999,3.4133 z m 84.69311,-30.7199 q 8.74665,-14.9333 21.11997,-14.9333 7.03999,0 10.45331,4.2666 3.41333,4.0534 3.41333,9.1734 0,4.0533 -2.13333,6.6133 -1.91999,2.56 -6.18665,2.56 -3.41333,0 -5.12,-1.4934 -1.49333,-1.7066 -2.55999,-3.84 -0.85333,-2.1333 -2.13333,-3.6266 -1.28,-1.7067 -4.26666,-1.7067 -3.84,0 -7.25332,4.6933 -3.41333,4.48 -5.75999,12.16 -2.13333,7.68 -2.13333,17.4933 v 49.4933 q 0,4.48 1.27999,6.4 1.49333,1.92 5.97333,2.3466 l 5.75999,0.64 q 2.34666,0.4267 2.34666,2.3467 0,2.56 -3.19999,2.56 h -36.05328 q -3.19999,0 -3.19999,-2.3467 0,-1.92 2.77332,-2.56 l 2.56,-0.4266 q 4.47999,-0.8534 5.75999,-2.56 1.49333,-1.92 1.49333,-6.4 v -71.6799 q 0,-3.84 -1.28,-5.12 -1.06666,-1.4933 -4.05332,-1.92 l -4.48,-0.64 q -2.77332,-0.2133 -2.77332,-2.3466 0,-1.7067 3.41332,-2.3467 6.61333,-1.0667 10.02665,-3.4133 3.62667,-2.3467 7.46666,-5.76 1.92,-1.92 3.19999,-1.92 1.92,0 1.92,2.56 v 11.52 q 0,1.4933 1.28,1.9199 1.28,0.2134 2.34666,-1.7066 z m 53.12005,80.8532 v -83.4132 q 0,-5.12 -5.11999,-5.12 h -4.90666 q -2.55999,0 -2.55999,-2.1333 0,-2.1334 2.55999,-2.3467 10.02665,-1.0667 10.02665,-8.7466 v -1.28 q 0,-11.0934 3.2,-20.6933 3.41332,-9.6 9.59998,-15.5734 6.39999,-5.9733 15.57331,-5.9733 8.53332,0 14.29331,4.9067 5.75999,4.9066 5.75999,11.7333 0,4.0533 -2.13333,6.1867 -1.92,1.9199 -5.33332,1.9199 -4.26666,0 -6.18666,-2.7733 -1.70666,-2.7733 -2.77333,-6.1866 -1.06666,-3.6267 -2.77333,-6.4 -1.49333,-2.7734 -5.54666,-2.7734 -4.26666,0 -6.82665,4.9067 -2.34666,4.6933 -2.34666,17.92 v 18.7733 q 0,2.56 2.55999,2.56 h 18.34664 q 3.19999,0 3.19999,2.9866 0,2.9867 -3.19999,2.9867 h -18.34664 q -2.55999,0 -2.55999,2.56 v 85.9732 q 0,4.48 1.27999,6.1866 1.49333,1.7067 5.97333,2.1334 l 11.30665,1.0666 q 2.34666,0.4267 2.34666,2.3467 0,2.56 -3.2,2.56 h -44.37326 q -3.19999,0 -3.19999,-2.3467 0,-2.3466 2.77333,-2.56 l 5.33332,-0.4266 q 4.47999,-0.4267 5.75999,-2.3467 1.49333,-2.1333 1.49333,-6.6133 z m 78.50643,16.2133 q -10.45332,0 -18.77331,-6.8267 -8.31998,-6.8266 -13.22664,-19.1999 -4.69333,-12.5867 -4.69333,-29.0133 0,-16.8533 4.90666,-29.6533 4.90666,-12.8 13.43998,-20.0533 8.53332,-7.2533 18.98664,-7.2533 12.58664,0 20.26663,10.4533 7.89332,10.24 7.89332,33.4933 0,7.04 -5.33332,7.04 h -40.53327 q -4.26666,0 -4.26666,4.9066 0,22.6133 6.61332,34.56 6.61332,11.7333 18.55997,11.7333 7.46665,0 12.15998,-4.0533 4.90666,-4.0534 7.67999,-11.3067 1.06666,-2.3467 2.77333,-2.3467 1.28,0 1.70666,1.0667 0.42667,1.0667 0,2.3467 -2.77333,10.4533 -9.59998,17.2799 -6.61333,6.8267 -18.55997,6.8267 z m -17.70664,-66.3466 h 21.54663 q 10.23998,0 10.23998,-10.6666 0,-13.8667 -3.41332,-21.76 -3.41333,-7.8933 -10.23999,-7.8933 -8.31998,0 -14.07998,9.6 -5.54665,9.6 -7.25332,27.3066 -0.42666,3.4133 3.2,3.4133 z m 91.30646,66.3466 q -9.81332,0 -17.70664,-6.1867 -7.89332,-6.3999 -12.37331,-18.1333 -4.47999,-11.7333 -4.47999,-27.9466 0,-18.1333 5.33332,-31.5733 5.54666,-13.4399 14.93331,-20.6933 9.38665,-7.4666 20.90663,-7.4666 9.81332,0 15.35998,3.84 2.13333,1.4933 2.13333,4.6933 l 0.42666,26.0266 q 0,3.2 -2.55999,3.2 -2.34666,0 -2.98666,-2.7733 -2.98666,-11.7333 -5.75999,-18.1333 -2.77333,-6.4 -5.75999,-8.7467 -2.98667,-2.56 -6.61333,-2.56 -4.26666,0 -8.95998,4.9067 -4.48,4.9067 -7.67999,16 -2.98666,10.8799 -2.98666,28.7999 0,22.8267 5.97332,34.9866 6.18666,11.9467 16.85331,11.9467 6.61332,0 11.73331,-4.2667 5.11999,-4.48 7.89332,-13.2266 0.64,-2.3467 2.56,-2.3467 1.28,0 1.70666,1.0667 0.42667,1.0666 0,2.3466 -2.77333,12.16 -9.59998,19.2 -6.82666,7.04 -18.34664,7.04 z m 64.21335,0 q -7.46665,0 -12.37331,-5.12 -4.69333,-5.3333 -4.69333,-17.28 v -79.7865 q 0,-2.56 -2.55999,-2.56 h -6.18666 q -3.41333,0 -3.41333,-2.56 0,-1.7067 1.92,-2.9867 7.03999,-4.9066 11.30665,-10.4533 4.26666,-5.76 7.46665,-15.5733 1.49334,-4.48 3.62667,-4.48 2.34666,0 2.34666,3.4133 v 23.68 q 0,2.9867 2.98666,2.9867 h 13.86664 q 3.41333,0 3.41333,2.9866 0,2.9867 -3.41333,2.9867 h -13.86664 q -2.98666,0 -2.98666,2.9867 v 79.5732 q 0,4.6933 1.49333,7.4666 1.49333,2.56 5.54666,2.56 4.47999,0 7.25332,-4.48 2.98666,-4.48 3.83999,-14.5066 0.42667,-2.9867 2.77333,-2.9867 2.56,0 2.56,3.2 -0.64,16.4267 -6.82666,23.68 -5.97332,7.2533 -14.07998,7.2533 z"
       id="text1"
       style="font-size:213.333px;line-height:0.9;font-family:'Product Serif';-inkscape-font-specification:'Product Serif';text-align:center;letter-spacing:0px;text-orientation:upright;text-anchor:middle;fill:#000000;stroke:none;stroke-width:10"
       aria-label="PagePerfect" />
    <path
       style="font-size:213.333px;line-height:0.9;font-family:'Brand Sans';-inkscape-font-specification:'Brand Sans';text-align:center;letter-spacing:0px;text-orientation:upright;text-anchor:middle;fill:#000000;stroke:none;stroke-width:10"
       d="m 646.13246,1783.4935 v -48.2132 h 13.01331 l 13.65331,34.9866 h 0.42667 l 13.65331,-34.9866 h 12.79998 v 48.2132 h -8.95999 v -25.8133 l 0.42667,-9.3866 h -0.42667 l -14.50664,35.1999 h -6.61332 l -14.29332,-35.1999 h -0.42666 l 0.42666,9.3866 v 25.8133 z m -25.1733,0.8534 q -5.97332,0 -11.30665,-3.4134 -5.33332,-3.4133 -7.25332,-9.3866 l 8.31999,-3.6267 q 1.06666,3.4134 4.05333,5.76 2.98666,2.1333 6.18665,2.1333 2.98666,0 5.33333,-1.4933 2.55999,-1.4933 2.55999,-4.2666 0,-2.7734 -2.55999,-4.48 -2.56,-1.92 -8.74665,-3.4134 -5.33333,-1.4933 -9.59999,-4.6933 -4.05333,-3.4133 -4.05333,-9.1733 0,-6.4 5.12,-10.0267 5.11999,-3.84 11.73331,-3.84 5.33332,0 10.02665,3.2 4.90666,2.9867 6.61332,7.8934 l -8.31998,3.2 q -0.21334,-1.4934 -2.56,-3.6267 -2.13333,-2.1333 -5.75999,-2.1333 -3.19999,0 -5.33332,1.4933 -1.92,1.28 -1.92,3.6267 0,1.92 2.13333,3.6266 2.13333,1.4933 6.18666,2.7733 5.75999,1.7067 11.09331,4.9067 5.33333,3.2 5.33333,10.6667 0,4.9066 -2.77333,8.1066 -2.77333,3.2 -6.82666,4.6933 -4.05333,1.4934 -7.67999,1.4934 z"
       id="text2"
       aria-label="℠" />
  </g>
</svg>
