<?xml version="1.0" encoding="UTF-8" standalone="no"?>
<!-- Created with Inkscape (http://www.inkscape.org/) -->

<svg
   width="758.40234"
   height="291.01279"
   viewBox="0 0 758.40235 291.0128"
   version="1.1"
   id="svg1"
   inkscape:version="1.3 (0e150ed6c4, 2023-07-21)"
   sodipodi:docname="PagePerfect-Group-white.svg"
   xmlns:inkscape="http://www.inkscape.org/namespaces/inkscape"
   xmlns:sodipodi="http://sodipodi.sourceforge.net/DTD/sodipodi-0.dtd"
   xmlns="http://www.w3.org/2000/svg"
   xmlns:svg="http://www.w3.org/2000/svg">
  <sodipodi:namedview
     id="namedview1"
     pagecolor="#505050"
     bordercolor="#eeeeee"
     borderopacity="1"
     inkscape:showpageshadow="0"
     inkscape:pageopacity="0"
     inkscape:pagecheckerboard="0"
     inkscape:deskcolor="#505050"
     inkscape:document-units="px"
     inkscape:zoom="0.70710678"
     inkscape:cx="330.92597"
     inkscape:cy="263.04372"
     inkscape:window-width="1600"
     inkscape:window-height="829"
     inkscape:window-x="-8"
     inkscape:window-y="-8"
     inkscape:window-maximized="1"
     inkscape:current-layer="layer1" />
  <defs
     id="defs1" />
  <g
     inkscape:label="Layer 1"
     inkscape:groupmode="layer"
     id="layer1"
     transform="translate(215.33268,-1689.1204)">
    <g
       id="g7"
       style="fill:#ffffff;stroke:none">
      <path
         style="font-size:213.333px;line-height:0.9;font-family:'Kalber Sans Text';-inkscape-font-specification:'Kalber Sans Text';text-align:center;letter-spacing:0px;text-orientation:upright;text-anchor:middle;stroke-width:9.99998;fill:#ffffff;stroke:none"
         d="m 409.61889,1978.7306 v -62.7678 h 23.14344 q 5.25988,0 9.73077,2.1039 4.47089,2.0163 7.18849,6.2242 2.7176,4.2079 2.7176,10.6951 0,6.4872 -2.7176,10.6951 -2.7176,4.2078 -7.18849,6.3118 -4.47089,2.0163 -9.73077,2.0163 h -18.93554 v -7.1008 h 19.11087 q 3.76958,0 6.39952,-1.4027 2.7176,-1.4026 4.12023,-4.0325 1.4903,-2.7176 1.4903,-6.4872 0,-3.8573 -1.4903,-6.4872 -1.40263,-2.6299 -4.12023,-4.0326 -2.62994,-1.4026 -6.39952,-1.4026 h -15.86728 v 55.667 z"
         id="path7" />
      <path
         style="font-size:213.333px;line-height:0.9;font-family:'Kalber Sans Text';-inkscape-font-specification:'Kalber Sans Text';text-align:center;letter-spacing:0px;text-orientation:upright;text-anchor:middle;stroke-width:9.99998;fill:#ffffff;stroke:none"
         d="m 296.17067,1980.1332 q -7.27615,0 -12.44837,-2.8052 -5.17221,-2.8053 -7.97747,-8.2405 -2.7176,-5.4352 -2.7176,-13.2373 v -39.8874 h 7.27616 v 40.238 q 0,5.4352 1.75329,9.2048 1.84095,3.7696 5.34753,5.6982 3.59425,1.9286 8.76646,1.9286 5.17221,0 8.67879,-1.9286 3.50659,-1.9286 5.25988,-5.6982 1.84095,-3.7696 1.84095,-9.2048 v -40.238 h 7.36382 v 39.8874 q 0,7.8021 -2.80526,13.2373 -2.7176,5.4352 -7.88981,8.2405 -5.17221,2.8052 -12.44837,2.8052 z"
         id="path6" />
      <path
         style="font-size:213.333px;line-height:0.9;font-family:'Kalber Sans Text';-inkscape-font-specification:'Kalber Sans Text';text-align:center;letter-spacing:0px;text-orientation:upright;text-anchor:middle;stroke-width:9.99998;fill:#ffffff;stroke:none"
         d="m 153.26714,1980.1332 q -6.48717,0 -11.92238,-2.3669 -5.34754,-2.367 -9.38011,-6.6625 -3.9449,-4.3832 -6.13652,-10.3445 -2.10394,-6.0488 -2.10394,-13.4126 0,-7.3638 2.10394,-13.325 2.19162,-6.0489 6.13652,-10.3444 4.03257,-4.3833 9.38011,-6.7502 5.43521,-2.367 11.92238,-2.367 6.48718,0 11.83473,2.367 5.34754,2.3669 9.29244,6.7502 4.03257,4.2955 6.13652,10.3444 2.19162,5.9612 2.19162,13.325 0,7.3638 -2.19162,13.4126 -2.10395,5.9613 -6.13652,10.3445 -3.9449,4.2955 -9.29244,6.6625 -5.34755,2.3669 -11.83473,2.3669 z m 0,-7.1008 q 6.22419,0 11.13341,-2.9806 4.99688,-2.9806 7.88981,-8.6788 2.9806,-5.7858 2.9806,-14.0263 0,-8.2405 -2.9806,-13.9387 -2.89293,-5.7858 -7.88981,-8.7665 -4.90922,-2.9805 -11.13341,-2.9805 -6.22418,0 -11.22106,2.9805 -4.99688,2.9807 -7.88981,8.7665 -2.89293,5.6982 -2.89293,13.9387 0,8.2405 2.89293,14.0263 2.89293,5.6982 7.88981,8.6788 4.99688,2.9806 11.22106,2.9806 z"
         id="path5" />
      <path
         style="font-size:213.333px;line-height:0.9;font-family:'Kalber Sans Text';-inkscape-font-specification:'Kalber Sans Text';text-align:center;letter-spacing:0px;text-orientation:upright;text-anchor:middle;stroke-width:9.99998;fill:#ffffff;stroke:none"
         d="m -9.9745485,1978.7306 v -62.7678 H 13.081229 q 5.96119,0 10.34442,2.1916 4.47089,2.1916 6.9255,6.3995 2.45461,4.1202 2.45461,9.9938 0,3.6819 -1.31497,7.0131 -1.2273,3.3313 -4.03257,5.9612 -2.7176,2.5423 -7.10083,4.1202 -4.38323,1.4904 -10.6950805,1.4904 h -15.428958 v -6.9255 H 13.431889 q 3.50658,0 6.13652,-1.315 2.7176,-1.315 4.2079,-3.8573 1.57796,-2.6299 1.57796,-6.4871 0,-3.8573 -1.4903,-6.3995 -1.49029,-2.5423 -4.2079,-3.7696 -2.62993,-1.315 -6.22418,-1.315 H -2.5230605 v 55.667 z m 17.532917,-29.017 8.0651305,-0.4383 17.79591,29.1047 v 0.3506 h -8.06514 z"
         id="path4" />
      <path
         style="font-size:213.333px;line-height:0.9;font-family:'Kalber Sans Text';-inkscape-font-specification:'Kalber Sans Text';text-align:center;letter-spacing:0px;text-orientation:upright;text-anchor:middle;stroke-width:9.99998;fill:#ffffff;stroke:none"
         d="m -127.19236,1980.1332 q -6.31184,0 -11.48405,-2.2792 -5.17221,-2.367 -8.94179,-6.7502 -3.68191,-4.3832 -5.6982,-10.3445 -2.01628,-6.0488 -2.01628,-13.4126 0,-7.3638 2.10395,-13.325 2.19161,-6.0489 6.04885,-10.4321 3.94491,-4.3832 9.11712,-6.6625 5.25987,-2.367 11.39639,-2.367 10.16909,0 16.8316,4.8216 6.66251,4.7339 8.50346,12.8867 l -7.01316,1.9286 q -0.96431,-3.7696 -3.41892,-6.5748 -2.36695,-2.8053 -6.13652,-4.3833 -3.76958,-1.5779 -8.67879,-1.5779 -4.29557,0 -8.15281,1.6656 -3.85724,1.6656 -6.83783,4.9092 -2.89293,3.2436 -4.55856,8.0651 -1.66563,4.8216 -1.66563,11.0458 0,6.2242 1.57797,11.0457 1.66562,4.7339 4.47089,8.0652 2.89293,3.2435 6.66251,4.9092 3.76957,1.6656 7.97747,1.6656 4.47089,0 7.97748,-1.4026 3.50658,-1.4903 5.96118,-4.1203 2.54228,-2.6299 3.94491,-6.0488 1.4903,-3.4189 1.84096,-7.3639 h -19.28621 v -6.8378 h 26.38704 q 0,7.8898 0,15.7796 0,7.8022 0,15.692 h -6.83784 v -9.8184 h -0.35066 q -1.13964,2.2793 -2.98059,4.2955 -1.84096,2.0163 -4.38323,3.5943 -2.45461,1.578 -5.61053,2.4546 -3.06826,0.8766 -6.75018,0.8766 z"
         id="text1" />
      <path
         style="font-size:213.333px;line-height:0.9;font-family:'Product Serif';-inkscape-font-specification:'Product Serif';text-align:center;letter-spacing:-10px;text-orientation:upright;text-anchor:middle;fill:#ffffff;stroke:none;stroke-width:10"
         d="m -212.13269,1848.6935 q -3.19999,0 -3.19999,-2.3467 0,-1.92 2.77332,-2.56 l 4.90666,-0.8533 q 4.48,-0.8533 5.75999,-2.3467 1.49334,-1.4933 1.49334,-5.9733 v -125.4398 q 0,-4.48 -1.49334,-5.9733 -1.27999,-1.4933 -5.75999,-2.3467 l -4.90666,-0.8533 q -2.77332,-0.64 -2.77332,-2.56 0,-2.3467 3.19999,-2.3467 h 44.5866 q 12.58664,0 22.18663,5.5467 9.59998,5.3333 14.93331,14.9333 5.33332,9.6 5.33332,22.1866 0,12.16 -5.33332,21.5467 -5.33333,9.3866 -14.71998,14.72 -9.38665,5.1199 -21.75997,5.1199 h -15.35997 q -2.98666,0 -2.98666,2.9867 v 51.6266 q 0,4.48 1.70666,6.1866 1.70667,1.4934 7.67999,2.56 l 7.89332,1.28 q 2.34666,0.4267 2.34666,2.3467 0,2.56 -3.19999,2.56 z m 26.87996,-86.6132 q 0,11.7333 14.29331,11.7333 13.86664,0 21.75996,-9.8133 8.10666,-9.8133 8.10666,-26.88 0,-17.4933 -8.10666,-27.0932 -8.10665,-9.6 -23.03996,-9.6 -13.01331,0 -13.01331,8.5333 z m 77.89312,88.5332 q -8.95999,0 -14.71998,-5.5467 -5.75999,-5.76 -5.75999,-15.1466 0,-9.1733 5.75999,-17.28 5.75999,-8.32 15.78664,-14.9333 10.02665,-6.6133 22.82663,-10.6666 2.77333,-0.8534 2.77333,-3.6267 v -19.4133 q 0,-10.24 -3.2,-14.5066 -3.19999,-4.48 -8.74665,-4.48 -5.33332,0 -9.81332,4.9066 -4.26666,4.6934 -6.18665,16 -1.06667,6.8267 -4.69333,10.0266 -3.41333,2.9867 -7.03999,2.9867 -5.97332,0 -5.97332,-5.9733 0,-6.1867 3.41333,-12.16 3.62666,-6.1866 9.38665,-11.0933 5.75999,-5.12 12.58664,-8.1067 6.82666,-2.9866 13.65332,-2.9866 21.11996,0 21.11996,24.5333 v 71.4665 q 0,7.04 4.90666,7.04 2.34666,0 3.62666,-1.0667 1.28,-1.0666 2.56,-1.0666 1.70666,0 1.70666,1.7066 0,2.56 -4.05332,5.9734 -3.84,3.4133 -9.38666,3.4133 -5.54665,0 -8.31998,-3.2 -2.56,-3.4133 -3.62666,-10.88 -0.21334,-2.1333 -1.92,-2.1333 -1.49333,-0.2133 -2.98666,1.92 -5.11999,7.04 -10.45332,10.6666 -5.33332,3.6267 -13.22664,3.6267 z m 5.75999,-9.8133 q 5.54665,0 10.23998,-3.84 4.69333,-4.0533 7.67999,-10.6667 2.98666,-6.6133 2.98666,-14.9333 v -15.5733 q 0,-4.0533 -4.47999,-2.3466 -13.01332,4.6933 -20.26664,13.0133 -7.03999,8.1066 -7.03999,19.6266 0,14.72 10.87999,14.72 z m 77.46645,53.7599 q -16.2133,0 -25.59996,-6.6133 -9.38665,-6.4 -9.38665,-15.5733 0,-3.84 1.06667,-7.04 1.06666,-2.9867 4.47999,-7.04 3.62666,-4.0533 10.87998,-10.4533 2.56,-2.3467 2.56,-4.2667 0,-2.1333 -2.56,-3.2 -7.67999,-3.2 -9.17332,-8.1066 -1.49333,-5.12 3.62666,-9.3867 l 12.37332,-10.4533 q 2.34666,-2.1333 2.13333,-4.2667 -0.21333,-2.3466 -2.77333,-3.84 -6.18666,-4.2666 -10.87998,-12.3733 -4.69333,-8.1066 -4.69333,-18.3466 0,-9.8133 4.26666,-17.7067 4.26666,-7.8933 11.51998,-12.5866 7.25332,-4.6933 16.21331,-4.6933 2.98666,0 4.90666,0.4266 2.13333,0.2134 4.69332,0.64 2.77333,0.2134 7.46666,0.2134 h 18.98664 q 3.19999,0 3.19999,2.56 0,2.56 -2.77333,3.2 l -11.51998,2.7733 q -2.13333,0.64 -0.85333,2.56 3.62666,4.6933 5.54666,10.6666 1.91999,5.9734 1.91999,12.8 0,10.24 -4.26666,18.3467 -4.05332,8.1066 -11.30665,12.7999 -7.03998,4.6934 -15.99997,4.6934 -3.83999,0 -6.82666,1.92 -2.98666,1.7066 -7.03998,6.1866 -4.26666,4.9067 -3.41333,8.32 1.06666,3.4133 5.75999,3.4133 h 20.90663 q 15.35998,0 24.31996,7.68 8.95999,7.4667 8.95999,20.6933 0,10.4533 -6.18666,18.56 -5.97332,8.1066 -16.42664,12.8 -10.45332,4.6933 -24.10663,4.6933 z M -36.93315,1774.027 q 0,14.2933 4.48,22.6132 4.47999,8.32 12.15998,8.32 7.67998,0 12.15998,-8.32 4.47999,-8.3199 4.47999,-22.6132 0,-13.8667 -4.69333,-22.1867 -4.47999,-8.5333 -11.94664,-8.5333 -7.46666,0 -12.15998,8.5333 -4.48,8.32 -4.48,22.1867 z m -9.38665,95.5731 q 0,8.96 6.39999,14.5067 6.61332,5.76 18.34664,5.76 13.43998,0 21.9733,-7.4667 8.53332,-7.4666 8.53332,-19.2 0,-9.5999 -5.75999,-14.7199 -5.54666,-5.3334 -15.78665,-5.3334 h -7.46665 q -6.61332,0 -10.02665,1.4934 -3.41333,1.28 -7.25332,5.3333 -5.97333,6.4 -7.46666,10.6666 -1.49333,4.48 -1.49333,8.96 z m 100.07993,-18.9866 q -10.45332,0 -18.77331,-6.8267 -8.31998,-6.8266 -13.22664,-19.1999 -4.69333,-12.5867 -4.69333,-29.0133 0,-16.8533 4.90666,-29.6533 4.90666,-12.8 13.43998,-20.0533 8.53332,-7.2533 18.98663,-7.2533 12.58665,0 20.26664,10.4533 7.89332,10.24 7.89332,33.4933 0,7.04 -5.33332,7.04 H 36.69349 q -4.26666,0 -4.26666,4.9066 0,22.6133 6.61332,34.56 6.61332,11.7333 18.55997,11.7333 7.46665,0 12.15998,-4.0533 4.90666,-4.0534 7.67999,-11.3067 1.06666,-2.3467 2.77333,-2.3467 1.27999,0 1.70666,1.0667 0.42667,1.0667 0,2.3467 -2.77333,10.4533 -9.59998,17.2799 -6.61333,6.8267 -18.55997,6.8267 z m -17.70664,-66.3466 h 21.54663 q 10.23998,0 10.23998,-10.6666 0,-13.8667 -3.41332,-21.76 -3.41333,-7.8933 -10.23999,-7.8933 -8.31998,0 -14.07998,9.6 -5.54665,9.6 -7.25332,27.3066 -0.42666,3.4133 3.2,3.4133 z m 49.09315,64.4266 q -3.2,0 -3.2,-2.3467 0,-1.92 2.77333,-2.56 l 4.90666,-0.8533 q 4.47999,-0.8533 5.75999,-2.3467 1.49333,-1.4933 1.49333,-5.9733 v -125.4398 q 0,-4.48 -1.49333,-5.9733 -1.28,-1.4933 -5.75999,-2.3467 l -4.90666,-0.8533 q -2.77333,-0.64 -2.77333,-2.56 0,-2.3467 3.2,-2.3467 h 44.58659 q 12.58665,0 22.18663,5.5467 9.59999,5.3333 14.93331,14.9333 5.33333,9.6 5.33333,22.1866 0,12.16 -5.33333,21.5467 -5.33332,9.3866 -14.71997,14.72 -9.38665,5.1199 -21.75997,5.1199 h -15.35997 q -2.98667,0 -2.98667,2.9867 v 51.6266 q 0,4.48 1.70667,6.1866 1.70666,1.4934 7.67999,2.56 l 7.89332,1.28 q 2.34666,0.4267 2.34666,2.3467 0,2.56 -3.19999,2.56 z m 26.87995,-86.6132 q 0,11.7333 14.29332,11.7333 13.86664,0 21.75996,-9.8133 8.10665,-9.8133 8.10665,-26.88 0,-17.4933 -8.10665,-27.0932 -8.10665,-9.6 -23.03996,-9.6 -13.01332,0 -13.01332,8.5333 z m 93.03984,88.5332 q -10.45332,0 -18.7733,-6.8267 -8.31999,-6.8266 -13.22665,-19.1999 -4.69332,-12.5867 -4.69332,-29.0133 0,-16.8533 4.90665,-29.6533 4.90666,-12.8 13.43998,-20.0533 8.53332,-7.2533 18.98664,-7.2533 12.58665,0 20.26663,10.4533 7.89332,10.24 7.89332,33.4933 0,7.04 -5.33332,7.04 h -40.53327 q -4.26666,0 -4.26666,4.9066 0,22.6133 6.61332,34.56 6.61333,11.7333 18.55998,11.7333 7.46665,0 12.15998,-4.0533 4.90665,-4.0534 7.67998,-11.3067 1.06667,-2.3467 2.77333,-2.3467 1.28,0 1.70667,1.0667 0.42666,1.0667 0,2.3467 -2.77333,10.4533 -9.59999,17.2799 -6.61332,6.8267 -18.55997,6.8267 z m -17.70664,-66.3466 h 21.54664 q 10.23998,0 10.23998,-10.6666 0,-13.8667 -3.41333,-21.76 -3.41333,-7.8933 -10.23998,-7.8933 -8.31999,0 -14.07998,9.6 -5.54666,9.6 -7.25332,27.3066 -0.42667,3.4133 3.19999,3.4133 z m 74.69311,-30.7199 q 8.74665,-14.9333 21.11997,-14.9333 7.03999,0 10.45332,4.2666 3.41332,4.0534 3.41332,9.1734 0,4.0533 -2.13333,6.6133 -1.91999,2.56 -6.18665,2.56 -3.41333,0 -5.12,-1.4934 -1.49333,-1.7066 -2.55999,-3.84 -0.85333,-2.1333 -2.13333,-3.6266 -1.28,-1.7067 -4.26666,-1.7067 -3.84,0 -7.25332,4.6933 -3.41333,4.48 -5.75999,12.16 -2.13333,7.68 -2.13333,17.4933 v 49.4933 q 0,4.48 1.27999,6.4 1.49333,1.92 5.97333,2.3466 l 5.75999,0.64 q 2.34666,0.4267 2.34666,2.3467 0,2.56 -3.19999,2.56 h -36.05328 q -3.19999,0 -3.19999,-2.3467 0,-1.92 2.77333,-2.56 l 2.55999,-0.4266 q 4.47999,-0.8534 5.75999,-2.56 1.49333,-1.92 1.49333,-6.4 v -71.6799 q 0,-3.84 -1.28,-5.12 -1.06666,-1.4933 -4.05332,-1.92 l -4.47999,-0.64 q -2.77333,-0.2133 -2.77333,-2.3466 0,-1.7067 3.41332,-2.3467 6.61333,-1.0667 10.02665,-3.4133 3.62667,-2.3467 7.46666,-5.76 1.92,-1.92 3.19999,-1.92 1.92,0 1.92,2.56 v 11.52 q 0,1.4933 1.28,1.9199 1.28,0.2134 2.34666,-1.7066 z m 43.12005,80.8532 v -83.4132 q 0,-5.12 -5.11999,-5.12 h -4.90666 q -2.55999,0 -2.55999,-2.1333 0,-2.1334 2.55999,-2.3467 10.02665,-1.0667 10.02665,-8.7466 v -1.28 q 0,-11.0934 3.2,-20.6933 3.41332,-9.6 9.59998,-15.5734 6.39999,-5.9733 15.57331,-5.9733 8.53332,0 14.29331,4.9067 5.75999,4.9066 5.75999,11.7333 0,4.0533 -2.13333,6.1867 -1.92,1.9199 -5.33332,1.9199 -4.26666,0 -6.18666,-2.7733 -1.70666,-2.7733 -2.77333,-6.1866 -1.06666,-3.6267 -2.77333,-6.4 -1.49333,-2.7734 -5.54666,-2.7734 -4.26666,0 -6.82665,4.9067 -2.34666,4.6933 -2.34666,17.92 v 18.7733 q 0,2.56 2.55999,2.56 h 18.34664 q 3.19999,0 3.19999,2.9866 0,2.9867 -3.19999,2.9867 h -18.34664 q -2.55999,0 -2.55999,2.56 v 85.9732 q 0,4.48 1.27999,6.1866 1.49333,1.7067 5.97333,2.1334 l 11.30665,1.0666 q 2.34666,0.4267 2.34666,2.3467 0,2.56 -3.2,2.56 h -44.37326 q -3.19999,0 -3.19999,-2.3467 0,-2.3466 2.77333,-2.56 l 5.33332,-0.4266 q 4.47999,-0.4267 5.75999,-2.3467 1.49333,-2.1333 1.49333,-6.6133 z m 68.50643,16.2133 q -10.45332,0 -18.77331,-6.8267 -8.31998,-6.8266 -13.22664,-19.1999 -4.69333,-12.5867 -4.69333,-29.0133 0,-16.8533 4.90666,-29.6533 4.90666,-12.8 13.43998,-20.0533 8.53332,-7.2533 18.98664,-7.2533 12.58664,0 20.26663,10.4533 7.89332,10.24 7.89332,33.4933 0,7.04 -5.33332,7.04 h -40.53327 q -4.26666,0 -4.26666,4.9066 0,22.6133 6.61332,34.56 6.61332,11.7333 18.55997,11.7333 7.46665,0 12.15998,-4.0533 4.90666,-4.0534 7.67999,-11.3067 1.06666,-2.3467 2.77333,-2.3467 1.28,0 1.70666,1.0667 0.42667,1.0667 0,2.3467 -2.77333,10.4533 -9.59998,17.2799 -6.61333,6.8267 -18.55997,6.8267 z m -17.70664,-66.3466 h 21.54663 q 10.23998,0 10.23998,-10.6666 0,-13.8667 -3.41332,-21.76 -3.41333,-7.8933 -10.23999,-7.8933 -8.31998,0 -14.07998,9.6 -5.54665,9.6 -7.25332,27.3066 -0.42666,3.4133 3.2,3.4133 z m 81.30646,66.3466 q -9.81332,0 -17.70664,-6.1867 -7.89332,-6.3999 -12.37331,-18.1333 -4.47999,-11.7333 -4.47999,-27.9466 0,-18.1333 5.33332,-31.5733 5.54666,-13.4399 14.93331,-20.6933 9.38665,-7.4666 20.90663,-7.4666 9.81332,0 15.35998,3.84 2.13333,1.4933 2.13333,4.6933 l 0.42666,26.0266 q 0,3.2 -2.55999,3.2 -2.34666,0 -2.98666,-2.7733 -2.98666,-11.7333 -5.75999,-18.1333 -2.77333,-6.4 -5.75999,-8.7467 -2.98667,-2.56 -6.61333,-2.56 -4.26666,0 -8.95998,4.9067 -4.48,4.9067 -7.67999,16 -2.98666,10.8799 -2.98666,28.7999 0,22.8267 5.97332,34.9866 6.18666,11.9467 16.85331,11.9467 6.61332,0 11.73331,-4.2667 5.11999,-4.48 7.89332,-13.2266 0.64,-2.3467 2.56,-2.3467 1.28,0 1.70666,1.0667 0.42667,1.0666 0,2.3466 -2.77333,12.16 -9.59998,19.2 -6.82666,7.04 -18.34664,7.04 z m 54.21335,0 q -7.46665,0 -12.37331,-5.12 -4.69333,-5.3333 -4.69333,-17.28 v -79.7865 q 0,-2.56 -2.55999,-2.56 h -6.18666 q -3.41333,0 -3.41333,-2.56 0,-1.7067 1.92,-2.9867 7.03999,-4.9066 11.30665,-10.4533 4.26666,-5.76 7.46665,-15.5733 1.49334,-4.48 3.62667,-4.48 2.34666,0 2.34666,3.4133 v 23.68 q 0,2.9867 2.98666,2.9867 h 13.86664 q 3.41333,0 3.41333,2.9866 0,2.9867 -3.41333,2.9867 h -13.86664 q -2.98666,0 -2.98666,2.9867 v 79.5732 q 0,4.6933 1.49333,7.4666 1.49333,2.56 5.54666,2.56 4.47999,0 7.25332,-4.48 2.98666,-4.48 3.83999,-14.5066 0.42667,-2.9867 2.77333,-2.9867 2.56,0 2.56,3.2 -0.64,16.4267 -6.82666,23.68 -5.97332,7.2533 -14.07998,7.2533 z"
         id="text2"
         aria-label="PagePerfect" />
      <path
         style="-inkscape-font-specification:'Kalber Sans Text';fill:#ffffff;stroke:none;stroke-width:10"
         d="m 526.67994,1703.9435 v -14.8231 h 3.91666 l 4.21794,10.7859 h 0.12051 l 4.15769,-10.7859 h 3.97692 v 14.8231 h -2.77179 v -8.0141 l 0.12051,-2.8923 h -0.12051 l -4.45897,10.9064 h -1.98846 l -4.45896,-10.9064 h -0.12052 l 0.12052,2.8923 v 8.0141 z m -9.76153,0 v -12.1718 h -4.51922 v -2.6513 h 11.74998 v 2.6513 h -4.33845 v 12.1718 z"
         id="text3"
         aria-label="™" />
    </g>
  </g>
</svg>
